<svg width="24" height="24" viewBox="0 0 24 24" fill="none" xmlns="http://www.w3.org/2000/svg">
<path d="M12 21C16.9706 21 21 16.9706 21 12C21 7.02944 16.9706 3 12 3C7.02944 3 3 7.02944 3 12C3 16.9706 7.02944 21 12 21Z" stroke="#A0AEC0" stroke-width="1.5" stroke-linecap="round" stroke-linejoin="round"/>
<path d="M14 9.74955C13.4171 9.23728 12.6592 8.96941 11.8838 9.00163C11.1085 9.03385 10.3754 9.36369 9.837 9.92255C9.2994 10.4803 8.99902 11.2249 8.99902 11.9996C8.99902 12.7742 9.2994 13.5188 9.837 14.0766C10.3754 14.6354 11.1085 14.9653 11.8838 14.9975C12.6592 15.0297 13.4171 14.7618 14 14.2496" stroke="#A0AEC0" stroke-width="1.5" stroke-linecap="round" stroke-linejoin="round"/>
</svg>
