<svg width="32" height="32" viewBox="0 0 32 32" fill="none" xmlns="http://www.w3.org/2000/svg">
<path d="M28 17.6732C24.1873 19.2148 20.1126 20.0049 16 19.9998C11.756 19.9998 7.70667 19.1732 4 17.6732M16 15.9998H16.0133M21.3333 7.99984V5.33317C21.3333 4.62593 21.0524 3.94765 20.5523 3.44755C20.0522 2.94746 19.3739 2.6665 18.6667 2.6665H13.3333C12.6261 2.6665 11.9478 2.94746 11.4477 3.44755C10.9476 3.94765 10.6667 4.62593 10.6667 5.33317V7.99984H21.3333ZM6.66667 26.6665H25.3333C26.0406 26.6665 26.7189 26.3856 27.219 25.8855C27.719 25.3854 28 24.7071 28 23.9998V10.6665C28 9.95926 27.719 9.28098 27.219 8.78089C26.7189 8.28079 26.0406 7.99984 25.3333 7.99984H6.66667C5.95942 7.99984 5.28115 8.28079 4.78105 8.78089C4.28095 9.28098 4 9.95926 4 10.6665V23.9998C4 24.7071 4.28095 25.3854 4.78105 25.8855C5.28115 26.3856 5.95942 26.6665 6.66667 26.6665Z" stroke="#0CAF60" stroke-width="2" stroke-linecap="round" stroke-linejoin="round"/>
</svg>
