<svg width="32" height="32" viewBox="0 0 32 32" fill="none" xmlns="http://www.w3.org/2000/svg">
<path d="M12.0003 14.6667C14.9458 14.6667 17.3337 12.2789 17.3337 9.33333C17.3337 6.38781 14.9458 4 12.0003 4C9.05481 4 6.66699 6.38781 6.66699 9.33333C6.66699 12.2789 9.05481 14.6667 12.0003 14.6667Z" stroke="#0CAF60" stroke-width="2" stroke-linecap="round" stroke-linejoin="round"/>
<path d="M4 28V25.3333C4 23.9188 4.5619 22.5623 5.5621 21.5621C6.56229 20.5619 7.91885 20 9.33333 20H14.6667C16.0812 20 17.4377 20.5619 18.4379 21.5621C19.4381 22.5623 20 23.9188 20 25.3333V28" stroke="#0CAF60" stroke-width="2" stroke-linecap="round" stroke-linejoin="round"/>
<path d="M21.333 4.17334C22.4802 4.46707 23.4971 5.13427 24.2232 6.06975C24.9493 7.00523 25.3435 8.15578 25.3435 9.34001C25.3435 10.5242 24.9493 11.6748 24.2232 12.6103C23.4971 13.5457 22.4802 14.2129 21.333 14.5067" stroke="#0CAF60" stroke-width="2" stroke-linecap="round" stroke-linejoin="round"/>
<path d="M28 28.0002V25.3335C27.9932 24.1564 27.5972 23.0146 26.8737 22.0861C26.1502 21.1575 25.1398 20.4945 24 20.2002" stroke="#0CAF60" stroke-width="2" stroke-linecap="round" stroke-linejoin="round"/>
</svg>
