<svg width="28" height="28" viewBox="0 0 28 28" fill="none" xmlns="http://www.w3.org/2000/svg">
<path d="M10.278 2.33325L6.05469 6.56825" stroke="#0CAF60" stroke-width="2" stroke-miterlimit="10" stroke-linecap="round" stroke-linejoin="round"/>
<path d="M17.7217 2.33325L21.945 6.56825" stroke="#0CAF60" stroke-width="2" stroke-miterlimit="10" stroke-linecap="round" stroke-linejoin="round"/>
<path d="M2.33301 9.15828C2.33301 6.99995 3.48801 6.82495 4.92301 6.82495H23.0763C24.5113 6.82495 25.6663 6.99995 25.6663 9.15828C25.6663 11.6666 24.5113 11.4916 23.0763 11.4916H4.92301C3.48801 11.4916 2.33301 11.6666 2.33301 9.15828Z" stroke="#0CAF60" stroke-width="2"/>
<path d="M11.3867 16.3333V20.4749" stroke="#0CAF60" stroke-width="2" stroke-linecap="round"/>
<path d="M16.7529 16.3333V20.4749" stroke="#0CAF60" stroke-width="2" stroke-linecap="round"/>
<path d="M4.08301 11.6667L5.72801 21.7467C6.10134 24.0101 6.99967 25.6667 10.3363 25.6667H17.3713C20.9997 25.6667 21.5363 24.0801 21.9563 21.8867L23.9163 11.6667" stroke="#0CAF60" stroke-width="2" stroke-linecap="round"/>
</svg>
