<svg width="32" height="32" viewBox="0 0 32 32" fill="none" xmlns="http://www.w3.org/2000/svg">
<path d="M16 18.667C18.2091 18.667 20 16.8761 20 14.667C20 12.4579 18.2091 10.667 16 10.667C13.7909 10.667 12 12.4579 12 14.667C12 16.8761 13.7909 18.667 16 18.667Z" stroke="#0CAF60" stroke-width="2" stroke-linecap="round" stroke-linejoin="round"/>
<path d="M23.5423 22.2094L17.885 27.8668C17.385 28.3663 16.7071 28.6469 16.0003 28.6469C15.2936 28.6469 14.6157 28.3663 14.1157 27.8668L8.45701 22.2094C6.96531 20.7176 5.94946 18.817 5.53793 16.7479C5.1264 14.6788 5.33767 12.5341 6.14502 10.5851C6.95237 8.63602 8.31954 6.97015 10.0737 5.79811C11.8278 4.62606 13.89 4.00049 15.9997 4.00049C18.1093 4.00049 20.1716 4.62606 21.9257 5.79811C23.6798 6.97015 25.047 8.63602 25.8543 10.5851C26.6617 12.5341 26.873 14.6788 26.4614 16.7479C26.0499 18.817 25.0341 20.7176 23.5423 22.2094V22.2094Z" stroke="#0CAF60" stroke-width="2" stroke-linecap="round" stroke-linejoin="round"/>
</svg>
