<svg width="32" height="32" viewBox="0 0 32 32" fill="none" xmlns="http://www.w3.org/2000/svg">
<path d="M16 7.41357H29.3333" stroke="#0CAF60" stroke-width="2" stroke-miterlimit="10" stroke-linecap="round" stroke-linejoin="round"/>
<path d="M18.96 2.6665H26.3733C28.7467 2.6665 29.3333 3.25317 29.3333 5.59984V11.0798C29.3333 13.4265 28.7467 14.0132 26.3733 14.0132H18.96C16.5867 14.0132 16 13.4265 16 11.0798V5.59984C16 3.25317 16.5867 2.6665 18.96 2.6665Z" stroke="#0CAF60" stroke-width="2" stroke-linecap="round" stroke-linejoin="round"/>
<path d="M2.66699 22.7466H16.0003" stroke="#0CAF60" stroke-width="2" stroke-miterlimit="10" stroke-linecap="round" stroke-linejoin="round"/>
<path d="M5.62699 18H13.0403C15.4137 18 16.0003 18.5867 16.0003 20.9333V26.4133C16.0003 28.76 15.4137 29.3467 13.0403 29.3467H5.62699C3.25366 29.3467 2.66699 28.76 2.66699 26.4133V20.9333C2.66699 18.5867 3.25366 18 5.62699 18Z" stroke="#0CAF60" stroke-width="2" stroke-linecap="round" stroke-linejoin="round"/>
<path d="M29.3333 20C29.3333 25.16 25.16 29.3333 20 29.3333L21.4 27" stroke="#0CAF60" stroke-width="2" stroke-linecap="round" stroke-linejoin="round"/>
<path d="M2.66699 11.9998C2.66699 6.83984 6.84033 2.6665 12.0003 2.6665L10.6003 4.99984" stroke="#0CAF60" stroke-width="2" stroke-linecap="round" stroke-linejoin="round"/>
</svg>
