<svg width="32" height="32" viewBox="0 0 32 32" fill="none" xmlns="http://www.w3.org/2000/svg">
<path d="M9.33366 25.3333C10.8064 25.3333 12.0003 24.1394 12.0003 22.6667C12.0003 21.1939 10.8064 20 9.33366 20C7.8609 20 6.66699 21.1939 6.66699 22.6667C6.66699 24.1394 7.8609 25.3333 9.33366 25.3333Z" stroke="#0CAF60" stroke-width="2" stroke-linecap="round" stroke-linejoin="round"/>
<path d="M22.6667 25.3333C24.1394 25.3333 25.3333 24.1394 25.3333 22.6667C25.3333 21.1939 24.1394 20 22.6667 20C21.1939 20 20 21.1939 20 22.6667C20 24.1394 21.1939 25.3333 22.6667 25.3333Z" stroke="#0CAF60" stroke-width="2" stroke-linecap="round" stroke-linejoin="round"/>
<path d="M6.66699 22.667H4.00033V17.3337M2.66699 6.66699H17.3337V22.667M12.0003 22.667H20.0003M25.3337 22.667H28.0003V14.667M28.0003 14.667H17.3337M28.0003 14.667L24.0003 8.00033H17.3337M4.00033 12.0003H9.33366" stroke="#0CAF60" stroke-width="2" stroke-linecap="round" stroke-linejoin="round"/>
</svg>
