<svg width="180" height="40" viewBox="0 0 180 40" fill="none" xmlns="http://www.w3.org/2000/svg">
<path d="M16.2784 1.83433C18.1722 0.704367 20.5332 0.704368 22.427 1.83433L33.1869 8.25436C35.0013 9.33695 36.1126 11.2941 36.1126 13.4069V26.5931C36.1126 28.7059 35.0013 30.6631 33.1869 31.7456L22.427 38.1657C20.5332 39.2956 18.1722 39.2956 16.2784 38.1657L5.51845 31.7456C3.70404 30.6631 2.59277 28.7059 2.59277 26.5931V13.4069C2.59277 11.2941 3.70404 9.33695 5.51845 8.25436L16.2784 1.83433Z" fill="#0CAF60"/>
<path d="M25.1907 14.65H24.8682L22.1427 11.8333C21.925 11.6083 21.5702 11.6083 21.3444 11.8333C21.1267 12.0583 21.1267 12.425 21.3444 12.6583L23.2716 14.65H15.4338L17.361 12.6583C17.5787 12.4333 17.5787 12.0666 17.361 11.8333C17.1432 11.6083 16.7885 11.6083 16.5627 11.8333L13.8452 14.65H13.5227C12.797 14.65 11.2891 14.65 11.2891 16.7833C11.2891 17.5916 11.4503 18.125 11.789 18.475C11.9825 18.6833 12.2164 18.7916 12.4664 18.85C12.7002 18.9083 12.9502 18.9166 13.1921 18.9166H25.5133C25.7633 18.9166 25.9971 18.9 26.2229 18.85C26.9002 18.6833 27.4163 18.1833 27.4163 16.7833C27.4163 14.65 25.9084 14.65 25.1907 14.65Z" fill="white"/>
<path d="M25.0383 20H13.6041C13.1041 20 12.7251 20.4583 12.8058 20.9667L13.4831 25.25C13.7089 26.6833 14.3137 28.3333 16.9989 28.3333H21.5225C24.24 28.3333 24.7238 26.925 25.0141 25.35L25.8285 20.9917C25.9253 20.475 25.5463 20 25.0383 20ZM19.3534 26.25C17.4665 26.25 15.9264 24.6583 15.9264 22.7083C15.9264 22.3667 16.2006 22.0833 16.5312 22.0833C16.8618 22.0833 17.1359 22.3667 17.1359 22.7083C17.1359 23.975 18.1278 25 19.3534 25C20.5791 25 21.5709 23.975 21.5709 22.7083C21.5709 22.3667 21.8451 22.0833 22.1757 22.0833C22.5063 22.0833 22.7805 22.3667 22.7805 22.7083C22.7805 24.6583 21.2403 26.25 19.3534 26.25Z" fill="white"/>
<path d="M65.1276 24.6913C65.1276 21.5888 63.123 19.7095 59.3497 18.9637L55.2521 18.1582C54.1319 17.9494 53.1885 17.3826 53.1885 16.428C53.1885 15.2646 54.1908 14.3696 55.8417 14.3696C57.6988 14.3696 58.9959 15.6226 59.1433 17.5616H64.7738C64.4496 12.9377 60.8236 10.0143 55.7827 10.0143C51.0366 10.0143 47.558 12.8184 47.558 16.8158C47.558 20.2763 49.7984 22.275 53.1885 22.9313L57.0503 23.677C58.2884 23.9157 59.2023 24.6018 59.2023 25.5266C59.2023 26.869 57.9347 27.6148 56.0185 27.6148C53.7192 27.6148 52.3926 26.332 52.3336 24.3035H46.7031C47.0864 29.0467 50.6238 32 56.1364 32C61.649 32 65.1276 29.1064 65.1276 24.6913Z" fill="#111827"/>
<path d="M76.8566 31.7017H80.9247V21.7977C80.9247 17.7406 78.36 15.3541 73.9971 15.3541C70.0764 15.3541 67.3348 17.8003 67.04 21.5292H71.5798C71.7567 20.1271 72.5821 19.3515 73.9676 19.3515C75.3826 19.3515 76.1786 20.1271 76.1786 21.5292V22.3048C75.5005 22.1855 74.7046 22.1258 73.8497 22.1258C69.3099 22.1258 66.8042 23.8262 66.8042 26.9585C66.8042 30.0013 69.0151 32 72.3168 32C74.3509 32 75.7364 31.4332 76.8566 30.1505V31.7017ZM71.5503 26.8093C71.5503 25.7056 72.4642 25.1388 74.174 25.1388C74.8225 25.1388 75.4121 25.1984 76.1786 25.3476V26.3619C76.1786 27.6744 75.1763 28.4799 73.496 28.4799C72.2578 28.4799 71.5503 27.8534 71.5503 26.8093Z" fill="#111827"/>
<path d="M89.1662 31.7017V10.2827H84.0663V31.7017H89.1662Z" fill="#111827"/>
<path d="M99.6359 31.9702C103.586 31.9702 106.387 29.9118 107.359 26.2425H102.318C101.876 27.406 100.933 28.0026 99.518 28.0026C97.8966 28.0026 96.9533 26.9883 96.688 24.9598H107.448C108.362 19.6796 104.854 15.3541 99.6064 15.3541C94.8897 15.3541 91.4702 18.8444 91.4702 23.6472C91.4702 28.6291 94.7423 31.9702 99.6359 31.9702ZM99.4885 19.1128C100.992 19.1128 101.994 20.1569 102.053 21.7678H96.7469C97.1007 19.978 97.9851 19.1128 99.4885 19.1128Z" fill="#111827"/>
<path d="M123.951 26.2425C123.951 23.9455 122.33 22.4241 119.264 21.8573L115.903 21.2309C114.901 21.0519 114.4 20.8431 114.4 20.1569C114.4 19.441 115.166 19.1128 116.345 19.1128C117.731 19.1128 118.704 19.8885 118.821 21.1712H123.656C123.361 17.5914 120.472 15.3541 116.316 15.3541C112.159 15.3541 109.565 17.5318 109.565 20.6342C109.565 23.2296 111.334 24.8405 114.105 25.3476L117.23 25.9144C118.32 26.1232 118.851 26.4215 118.851 27.1375C118.851 27.9728 117.819 28.2412 116.67 28.2412C114.93 28.2412 113.722 27.3761 113.722 26.0337H108.887C109.211 29.7328 111.805 32 116.581 32C121.357 32 123.951 29.7925 123.951 26.2425Z" fill="#111827"/>
<path d="M131.485 31.7017V10.2827H126.385V31.7017H131.485Z" fill="#111827"/>
<path d="M140.51 11.9235C140.51 10.2231 139.184 9 137.267 9C135.351 9 134.025 10.2231 134.025 11.9235C134.025 13.594 135.351 14.8171 137.267 14.8171C139.184 14.8171 140.51 13.594 140.51 11.9235ZM139.832 31.7017V15.6524H134.791V31.7017H139.832Z" fill="#111827"/>
<path d="M148.181 23.2594C148.181 20.8431 149.301 19.9481 150.539 19.9481C152.072 19.9481 152.779 21.0519 152.779 23.0804V31.7017H157.82V21.38C157.82 17.4721 155.609 15.3541 152.485 15.3541C150.48 15.3541 149.006 16.1894 147.768 17.5914V15.6524H143.14V31.7017H148.181V23.2594Z" fill="#111827"/>
<path d="M168.152 31.9702C172.102 31.9702 174.903 29.9118 175.875 26.2425H170.834C170.392 27.406 169.449 28.0026 168.034 28.0026C166.413 28.0026 165.469 26.9883 165.204 24.9598H175.964C176.878 19.6796 173.37 15.3541 168.122 15.3541C163.406 15.3541 159.986 18.8444 159.986 23.6472C159.986 28.6291 163.258 31.9702 168.152 31.9702ZM168.004 19.1128C169.508 19.1128 170.51 20.1569 170.569 21.7678H165.263C165.617 19.978 166.501 19.1128 168.004 19.1128Z" fill="#111827"/>
</svg>
